<?xml version="1.0" encoding="utf-8"?>
<!-- Generator: Adobe Illustrator 16.0.4, SVG Export Plug-In . SVG Version: 6.00 Build 0)  -->
<!DOCTYPE svg PUBLIC "-//W3C//DTD SVG 1.1//EN" "http://www.w3.org/Graphics/SVG/1.1/DTD/svg11.dtd">
<svg version="1.1" id="Ebene_1" xmlns="http://www.w3.org/2000/svg" xmlns:xlink="http://www.w3.org/1999/xlink" x="0px" y="0px"
	 width="200px" height="125px" viewBox="230 267.5 200 125" enable-background="new 230 267.5 200 125" xml:space="preserve">
<metadata><?xpacket begin="﻿" id="W5M0MpCehiHzreSzNTczkc9d"?>
<x:xmpmeta xmlns:x="adobe:ns:meta/" x:xmptk="Adobe XMP Core 5.3-c011 66.145661, 2012/02/06-14:56:27        ">
   <rdf:RDF xmlns:rdf="http://www.w3.org/1999/02/22-rdf-syntax-ns#">
      <rdf:Description rdf:about=""
            xmlns:dc="http://purl.org/dc/elements/1.1/">
         <dc:format>image/svg+xml</dc:format>
         <dc:title>
            <rdf:Alt>
               <rdf:li xml:lang="x-default">Web</rdf:li>
            </rdf:Alt>
         </dc:title>
      </rdf:Description>
      <rdf:Description rdf:about=""
            xmlns:xmp="http://ns.adobe.com/xap/1.0/"
            xmlns:xmpGImg="http://ns.adobe.com/xap/1.0/g/img/">
         <xmp:CreatorTool>Adobe Illustrator CS6 (Macintosh)</xmp:CreatorTool>
         <xmp:CreateDate>2014-01-01T17:52:41+01:00</xmp:CreateDate>
         <xmp:ModifyDate>2014-01-01T17:52:41+01:00</xmp:ModifyDate>
         <xmp:MetadataDate>2014-01-01T17:52:41+01:00</xmp:MetadataDate>
         <xmp:Thumbnails>
            <rdf:Alt>
               <rdf:li rdf:parseType="Resource">
                  <xmpGImg:width>256</xmpGImg:width>
                  <xmpGImg:height>168</xmpGImg:height>
                  <xmpGImg:format>JPEG</xmpGImg:format>
                  <xmpGImg:image>/9j/4AAQSkZJRgABAgEASABIAAD/7QAsUGhvdG9zaG9wIDMuMAA4QklNA+0AAAAAABAASAAAAAEA&#xA;AQBIAAAAAQAB/+4ADkFkb2JlAGTAAAAAAf/bAIQABgQEBAUEBgUFBgkGBQYJCwgGBggLDAoKCwoK&#xA;DBAMDAwMDAwQDA4PEA8ODBMTFBQTExwbGxscHx8fHx8fHx8fHwEHBwcNDA0YEBAYGhURFRofHx8f&#xA;Hx8fHx8fHx8fHx8fHx8fHx8fHx8fHx8fHx8fHx8fHx8fHx8fHx8fHx8fHx8f/8AAEQgAqAEAAwER&#xA;AAIRAQMRAf/EAaIAAAAHAQEBAQEAAAAAAAAAAAQFAwIGAQAHCAkKCwEAAgIDAQEBAQEAAAAAAAAA&#xA;AQACAwQFBgcICQoLEAACAQMDAgQCBgcDBAIGAnMBAgMRBAAFIRIxQVEGE2EicYEUMpGhBxWxQiPB&#xA;UtHhMxZi8CRygvElQzRTkqKyY3PCNUQnk6OzNhdUZHTD0uIIJoMJChgZhJRFRqS0VtNVKBry4/PE&#xA;1OT0ZXWFlaW1xdXl9WZ2hpamtsbW5vY3R1dnd4eXp7fH1+f3OEhYaHiImKi4yNjo+Ck5SVlpeYmZ&#xA;qbnJ2en5KjpKWmp6ipqqusra6voRAAICAQIDBQUEBQYECAMDbQEAAhEDBCESMUEFURNhIgZxgZEy&#xA;obHwFMHR4SNCFVJicvEzJDRDghaSUyWiY7LCB3PSNeJEgxdUkwgJChgZJjZFGidkdFU38qOzwygp&#xA;0+PzhJSktMTU5PRldYWVpbXF1eX1RlZmdoaWprbG1ub2R1dnd4eXp7fH1+f3OEhYaHiImKi4yNjo&#xA;+DlJWWl5iZmpucnZ6fkqOkpaanqKmqq6ytrq+v/aAAwDAQACEQMRAD8A9U4q7FXYq7FXYq7FUq8y&#xA;+avLnljS31TX9Qh02wj2M07ceTUrxRftOxpsqgk4q8B8w/8AObPla3N1FoOg3d+6VW0uLmRLeJz0&#xA;5lQJHC9wOp/ycVePXX/OV/52T3N1LHrENvFccvStorO24QA9PSZ0eQ07c2bFWFj82vzRElxIPNur&#xA;h7uvrkXs45V8Bz+H2piqC8u+fvOnlu4u7nQtau9PnvxS9khlYGWhJBetasCTRuoqfHFVWy/Mn8wr&#xA;HUP0ja+ZdTS+Jq85u5mZv9fkx5j2auKsz0f/AJyg/OjT9Rhu5tc/SMMTVksrqCEwyD+VvTSNx81Y&#xA;HFWdxf8AObfnA38DS+X9PXTxIv1mNGnMxj/aEblwobwqpGKvVYP+cwPydkQM8uoQkmnF7WpHv8Du&#xA;MVet+XPMmieZNGtta0S7S8027QPDOlRsezK1GVh3VhUYqmWKuxV2KuxV2KuxV2KuxV2KuxV2KuxV&#xA;2KuxV2KuxV2KuxV2KuxV2KvCP+cjv+cg73yBNa+X/LQgl8w3CevdzTD1FtoTsg4AgGSTc/F0Xt8Q&#xA;xV8e+bfOvmrzdqZ1PzHqU2pXhqEaUgJGp34xRqFjjX2RQMVSTFXYq7FXYq7FXYq7FXYqqwXNxAxa&#xA;CV4mIoWRipI8NsVe5/lR/wA5X+ZPJ2lWug63YDXdItarBOZWS9jjZuXH1G9RZFSp4qQD25UAoq+h&#xA;fKv/ADlB+T3mBY1fVzo909K2+qIYKE+Mw5wf8lMVeo2d5Z3tslzZzx3NtKKxzwusiMPFWUkHFVbF&#xA;XYq7FXYq7FXYq7FXYq7FXYq7FXYq7FXYq7FXYq+dfNH/ADlnfeUfPuoeWfMflMxW9hcGJ7i2u+cp&#xA;hNGimRHijVg8ZDBeS9euKvRfMf51+V7b8ptQ/MDQbmPUraCIJaxbg/W5SsccMybMhV5FLjrx3GKv&#xA;z+1zW9U13V7vWNVuGutRvpGmuZ36s7fLYAdABsBsMVQOKuxV2KuxV2KuxV2KuxV2KuxV2KuxVkPl&#xA;D8wfOnk+7+teW9XuNOYkNJFG3KGQj/fkL8o3/wBkuKvpHyL/AM5q2TW6W3nfR5I7haA6jpgDo3u8&#xA;ErKU9yrt7AYq9e8v/wDOQv5Oa5xFr5mtbaU9Yr/lZEHw5XAjQ/7FjirMJfNXleGz+vS6xYx2VK/W&#xA;nuYVip48y3Ht44qwnUv+ckfyS064NvceaYHcVBNtDc3Sbf8AFlvFKn44qh4v+cn/AMi5ZAi+Z1DH&#xA;oXs79BsK7s0AGKsg0j85Pyq1dlSx816Y8j7JFJcJDIxpWipMUY/QMVZhFNFNGssLrJE4qjoQykHu&#xA;CNjiq7FXYq7FXYq7FXYq7FUJqmr6VpNjJf6reQ2FlCKy3NzIsUa/N3IGKvKNZ/5yx/JnTZmii1G5&#xA;1NlNGaytnZa+zS+ip+g4q+aP+cjfzJ8kfmD5m07WvLVvdRTRWpt9Qkuo0i58HLRcQjvUqGYEntTF&#xA;XlaX16lnJZJcSLZzOss1sHYRPJGCEdkrxLKHahI2qcVUMVdirsVdirsVdirsVdirsVdirsVdirsV&#xA;dirsVdirsVdirsVdiqdeXPOnm7y1OJtA1i70xwakW0zojf66A8GHswOKvb/I/wDzmZ5z01o7fzZY&#xA;w65aCge7hAtbsDxPEei/y4L88VfSX5d/nT+Xvn5AmhaiBqIXnJpVyPRuloKmiHaQDuY2YDxxVnOK&#xA;uxV2KuxVi35k/mJoPkDytca/q7Flj/d2lohAkuJ2B4RJXxpUnsKnFXwJ+ZX5q+bvzC1htQ126P1d&#xA;GP1LTYiRbW6ntGld2/mc/EflQYqw/FXYq7FXYq7FXYq7FXYq7FXYq7FXYq7FXYq7FXYq7FXYq7FX&#xA;Yq7FXYq7FXYq7FVazvLuyu4byznktru3cSQXETFJEdTVWVloQQe4xV9Xfkh/zlhHdvb+XfzClSG4&#xA;akdp5hNEjcnYLdgUVD/xaPh/mp9oqvp9WVlDKQysKqw3BB7jFW8Vdir4q/5zN8w315+ZFlorSMLD&#xA;SrCN4oa/D61yzPJJTxKqi/7HFXgGKuxV2KuxV2KuxV2KuxV2KuxV2KuxV2KuxV2KuxV2KuxV2Kux&#xA;V2KuxV2KuxV2KuxV2Kro45JHCRqXdtlVQSSfYDFX0n/zjL/zkJcaXd2nkfzZdGTSZ2WDRdRmbe1c&#xA;7JbyMf8AdTHZST8B2+z9lV9f4q7FXwJ/zlNdev8Anj5gUEFYFs4lKmvSzhY19wzEYq8mxV2KuxV2&#xA;KuxV2KuxV2KuxV2KuxV2KuxV2KuxV2KuxV2KuxV2KuxV2KuxV2KuxV2KuxVEadf3mnahbahZSmC8&#xA;s5UuLaZftJLEwdGHuGAOKvTvzo8oWUum6H+ZugQLDoHm+PneW0QpHaaotRcwr4I8iOU+TdBTFX1H&#xA;/wA4z/mbL53/AC9jh1CX1dc0IrZX7satInH/AEedq93RSrHuyscVet4q/Mz8wvNcvm3ztrXmORQn&#xA;6SunljQV+GIfDEu9OkaqMVY9irsVdirsVdirsVdirsVdirsVdirsVdirsVdirsVdirsVdirsVdir&#xA;sVdirsVdirsVdirsVfRv5LWq+d/+cfvPfkmYerd6Ow1TSgR8Su8ZljVD7y2zg0/nPjirG/8AnEvz&#xA;c+h/mxb6bI/Gz1+CSylU/Z9VR60LfPkhQf62KvuvFX5f+aNDl0DzLq2hTSLNLpV5PZSSp9l2t5Wj&#xA;LD58cVSvFXYq7FXYq7FXYq7FXYq7FXYq7FXYq7FXYq7FXYq7FXYq7FXYq7FXYq7FXYq7FXYq7FXY&#xA;q+i/+cJr4r561/Tiax3Oleuydj6FxGgr2/3ecVeKWV83lXz9DfWxNdD1RZYuNdxa3FQN69eHfFX6&#xA;ZRSxyxJLGwaORQyMOhUioIxV+d/5/wChxaL+cPmezhgNvA90LmNOTOCLqNZywZv5mkJp26dsVee4&#xA;q7FXYq7FXYq7FXYq7FXYq7FXYq7FXYq7FXYq7FXYq7FXYq7FXYq7FXYq7FXYq7FXYq7FX0D/AM4U&#xA;o5/NHVnCngNEnBamwJu7Wgr70OKvEfM0gl8yatIAVD3lwwVhRhWVjQjxxV+h/wCTWvDXfyr8raly&#xA;5u+nwwzP1rLbr6Ep/wCRkTYqxL/nIz8mtO88+VLjVbKFY/NOkQvNZ3CqOdxFGC7WrkfaDb8K/Zb2&#xA;JxV8FYq7FXYq7FXYq7FXYq7FXYq7FXYq7FXYq7FXYq7FXYq7FXYq7FXYq7FXYq7FXYq7FXYq7FX1&#xA;F/zhBoUrah5n15lIiiht7CF96M0jNLIB2+ERp9+KvnXzlFJD5v1yKQcZI9QukddjQrMwI2xV9W/8&#xA;4XedI73ypqnlKeT/AErSZ/rdohO5tbn7QUf5Eykt/rjFX0B5g1eDRdB1LWLggQabazXcpPTjBGZD&#xA;+C4q/LrFXYq7FXYq7FXYq7FXYq7FXYq7FXYq7FXYq7FXYq7FXYq7FXYq7FXYq7FXYq7FXYq7FXYq&#xA;/QP/AJxr8mDyt+UmkJInC91YHVbyooeVyAYgR24wLGCPGuKvkz/nJLyfc+Wvzc1vlGVtNYlOq2cn&#xA;Z1uiXlp/qzc1xVB/krf+d/L3mMec/LWnS6nbaNNb22sWsHxPJBfsyCMoPio5jNGoQr8a9sVfSP8A&#xA;zmJ59uND8jWnlqzfhc+ZJHW5cHcWltwaRdtx6jui+68hir4qxV2KuxV2KuxV2KuxV2KuxV2KuxV2&#xA;KuxV2KuxV2KuxV2KuxV2KuxV6P5A/wCcfvzO872yX2l6atrpcn93qV+/1eFwe6CjSyL/AJSIR74q&#xA;yvXP+cPPzY0zT5by3l03VTEhdrWzmm9duIqQizQxKx8ByqfDFXhzKysVYFWU0ZTsQRirWKuxV2Ko&#xA;rTIbabUrSG6k9K1kmjSeX+WNmAZvoGKv1IhijhiSGJQkUahEQbAKooAPkMVeR/8AOSX5Q3X5heUY&#xA;ZdHiV/Mmju0tijFUM0UgpLb82KqC1FZSxpVabVriqcflt+SflryJrt9reitNbnVLOC3udNZg8Mcs&#xA;fxSSKevxt26LvTYgBVLf+chfyVk/MvQbNtNnjttf0hpGsWmqIpY5QvqQuygla8FKtQ0Pzrir408+&#xA;/lH5/wDIjRt5k0p7a1mbhBexsk1u7Urx9SMsFbb7LUPtirDsVdirsVfRH5G/84v6f548mv5k8y3l&#xA;5p6XkhXR4rUxLyijPF5pBKklVZ6hQKdK7gjFU+1//nCCdLWWXy/5oWa5UExWt9bemrHwM8bvx/5F&#xA;nFXzPrei6poerXekarbPaajYyNDdW8n2ldT7bEHqCNiNxtiqBxV2KuxV2KuxV2KuxV2KuxV2KuxV&#xA;2KuxV7t/zi/+ScXnPWn8y6/b+p5Z0mQCOCQfBd3Q3EZ/mjj2Z/HZelcVfbqIiIqIoVFACqBQADYA&#xA;AYq3ir4d/wCcsPyzj8reel17T4vT0jzJzn4KAFjvEI+sKAOgfkJB7lvDFXhuKuxV2KuxV+lf5WeZ&#xA;E8y/lz5d1oSiaW6sIPrTjf8A0iNBHOPolRhirKcVdirsVQuq6TpmrafNp2qWkV9YXC8J7W4RZI3H&#xA;WjKwIxV5Brn/ADiP+T+orcNZ2t1pU0yn02trh3SNzvyCTeqKV/ZrSnSmKvinzT5b1Pyz5i1DQNUT&#xA;hf6bO8EwFeJKnZ1rSqutGU+BxVG/l75RufN/nXR/LkAb/chcpHPIgqY4AeU0n+wjDNir9KtO0+z0&#xA;3T7bTrGJYLKziSC2hX7KRxqFRR8lGKojFXhX/OSf5Bt54sv8SeXY1Hmqxj4y2+yi9gQVCV/36n7B&#xA;PX7J7UVfEtza3NrcS211E8FzCxSaCVSjo6mhVlahBB7HFVLFXYq7FXYq7FXYq900f/nD78yNX0ix&#xA;1ay1fQ3s9Qt4rq2Yz3YJinQSIT/op/ZYYqjU/wCcKfzQLgPq2iKlfiKzXbED2BtVr9+KppZ/84Q+&#xA;an/3t8y2MPX+5hmm+X2vRxVkml/84PaFG6nVfNV1dJX41tbWO2NPANI9z+rFWD/nX/zivqflSD9N&#xA;eTBc6xoUcfK+t5Ssl5AR1cCNY/Uj/wBVar323xV415K8pal5t816b5c09T9a1GdYedCRGnWSVh/L&#xA;GgLH5Yq/SXyz5c0ny1oFjoWkwiDT9PiWGBB1ovVmPdmNWY9ycVTPFXYq80/5yK8lJ5s/KfWLdI+d&#xA;9pifpOwNKkSWoLOB7vCXQe5xV+e2KqkBhE0ZnDNCGHqqhAYrX4gpNd6Yq9G/OH8mr7yHNZanY3B1&#xA;TyhrKLNpGrAAGki+osUwGwfhuCNmG47gKvNcVZ/+Wn54ef8A8vT6Gi3azaU8nqTaTdL6luzHqy7h&#xA;4yfFGFe9cVfcv5U/mXpP5i+UIPMGnxm3k5m3v7JiGaC4QAunIU5LRgytTcEbA7YqzDFXYq7FXYqx&#xA;7zB+XnkXzHdLea7oFhqV2i8FuLm3jkk49l5kciB2GKo/RvLXl3Q4vR0XS7TTIqUKWkEcAI9/TVa4&#xA;qmWKuxV2KsB/Mn8j/wAv/wAwEaXWLH0NV48Y9XtCIrkU6BjQrIB4Opp2pir5D/Oz/nH3Vvyyhg1I&#xA;6nBqWjXtx9WtXCvFcq/BpKSR0ZKUU7q+/gMVeS4q7FXYq7FXYq/Sv8q9UudV/LbyzqNza/U5rnTb&#xA;ZzAOIUD0gFZAuwV1AZR2BxVlOKuxV2KuxVApoOhpqp1dNOtV1YxmE6gIYxcGMtyKerTnxLb0rSuK&#xA;o7FXYq7FWmVWUqwDKwoyncEHscVfmd+Ynlh/K3nrXfL7KVTT7yWKAHqYC3KFt/5omU4qx3FX3F/z&#xA;j/Dpn5hf84/W/l/zJbi9srZ5tLlDncpCwkgZGG6tEkihSOnHFXyb+a/5cal+XvnO78vXjGaBaTaf&#xA;eU4ie2cn03p2bYqw7MDirD8VfUP/ADg/rvDU/NGgO9fXht7+FPD0XaKUj5+tHir6zxV2KuxV2Kux&#xA;V2KuxV2KuxV2Kvn7/nNSxlm/LPS7pN1tdXi9UeCyW8w5Vr/MAPpxV8WYq7FXYq7FUZo+kalrOq2m&#xA;k6ZAbnUL6VLe1gUgF5JDxVasQo3PUmmKv0U/JvQfNPl/8tdD0XzQYzq+nwmB1iYSBIUdhBGWHwkp&#xA;FxXbbbvirNMVdirsVdirsVdirsVdirsVfAv/ADlLqemah+dGstYMr/Vkt7W6kXo08MSrIPmn2D7r&#xA;iryXFX6A/wDONHk7UPK35S6bb6jG0N9qMkmozQOKNGJyBGpB6H0kQkdiaYqxP/nMbyOur+QbbzPb&#xA;x1vfL049Zh1NpdERv068ZfTPsOWKvirFXrX/ADi3r40j859GVzxh1NJ7CU/8ZYy0Y+mWNMVffWKu&#xA;xV2KuxV2KuxV2KuxV2KuxV5l/wA5KaZZ3/5K+ZFunWL6tFFcwyN2lhnRkUe7/Y/2WKvz4xV2KuxV&#xA;dHHJLIscal5HIVEUEsWJoAAOpOKvsr8h/wDnGG18s3OkecvMd1LLr0cS3EGk8BHHayyoRSU1ZpJE&#xA;Df5IDeNMVfRGKuxV2KuxV2KuxV2KuxV2KsD/ADt/MmH8v/IF9rKsp1Ob/RNIiO/K6lB4sR/LGoLt&#xA;8qd8VfnXcXE9zcS3FxI0s8ztJLK5qzO5qzMT1JJxV6j/AM40+RIvN35qafHdwibTNIVtSvUYVRhC&#xA;QIkNdjymdKg9Vrir7/xVL/MOh2WvaDqOiXw5WepW0trPSlQkyFCRXuK1Hvir8ydd0e90TWr/AEe+&#xA;XheadcS2twvhJC5Rqe1VxVX8q63JoXmfSNbiP7zTLy3u1p39CVZKfTxxV+nyOkiLIhDI4DKw6EHc&#xA;EYq3irsVdirsVdirsVdirsVdir5g/wCc2/NU0OneXvK8EzKt28t/fRKaBli4xwcgOo5M5p4jFXyV&#xA;irsVdir7m/JT/nHLyF5WFh5qF7/iTVJIknsL8hRax81qJLeMVqd9nckjsFOKvbsVdirsVdirsVdi&#xA;rsVdirsVdir4H/5yW/NIeefP0lvYy89A0LnZ6dxNUlkr+/uB/rsoVT3VVPfFXkeKvtT/AJw58iya&#xA;N5Fu/Mt3Fwu/MMw+rch8X1O2qqHfcc5Gc+4CnFX0BirsVfDn/OX3lNNG/NL9KwACDzBax3TAdp4v&#xA;3Eop7hEb5k4q8OxV+k35Raq+rflf5Vv5G5Sy6ZarK2+8kcQjc7+LKcVZdirsVdirsVdirsVdirsV&#xA;dir89P8AnIbzufN/5raxeRtysdPb9GWH/GG1ZlJHs8pdx88VYf5O8ral5r80ab5d01a3epTpAjEE&#xA;qik1eRqb8Y0BdvYYqh/MWm2mma/qWm2d2L+0srqa3t75V4CaOKQosoUk05gVpXFUw8h+Rdf88eY4&#xA;PL+hJG19MrycpnEcaJGOTMzbn7gTir7+/JvyNqPkb8utK8taldJd3tmJXmkiLGJWmlaUxxlqEqvO&#xA;laCvWgxVmuKuxV2KuxV2KuxV2KuxV2KvK/8AnJjV/N2mflRfHyxBNLc3csdrfzW6s0sFnIrerIvH&#xA;cVKrGT2DV98VfBQ0jVmIAspyTsAInqT92KvrH/nFj8pPLeo/l/dap5t8t215dXOoyfUX1C2V2+rR&#xA;xRAFPUH2DJzH0Yq+lYIILeCOCCNYoIlCRRIAqIiiiqqjYADYAYqvxV2Kviz/AJzN8zW2o/mJp+i2&#xA;7h/0JZAXNDXjPdN6hX/kUIz9OKvFPKflrUfNHmTTvL+mmNb3U51t4GlYrGpb9pyAx4qNzQE+GKv0&#xA;f8g+Vh5T8l6N5cE/1k6ZaxwPPSgdwKuwHZSxNB4Yqn+KuxV2KuxV2KuxV2KuxV2KvAvMv/OHPkTW&#xA;NdutVt9Wv9PS9ne4mtE9KRFMjcmWNnXkoqTTlyxVmX5Z/wDOPvkL8v3ubnTVuL3U7qJoH1G8dWlS&#xA;J/tJEI1jVAe5py96Yq8i1b/nB5Gu3bSfNZjs2JMcN1ac5EFdgZI5UD/PguKs7/Jr/nGWw/LrzEPM&#xA;U2uSarqKwSQJEsC28K+rTkTV5WalKDcfLFXtuKuxV2KuxV2KuxV2KuxV2KuxV2KuxV2KuxV2KuxV&#xA;8l/mp/ziX591bzbq/mHQ9UtNSi1W7muzBds9vcRmdy/AHi8bKleIPJdqbYqqfkt/zi7598v/AJg6&#xA;Z5h8xyWtpYaS5uFjgl9aWaTiVRAAvFVBNWJPsOtQq+sMVf/Z</xmpGImg:image>
               </rdf:li>
            </rdf:Alt>
         </xmp:Thumbnails>
      </rdf:Description>
      <rdf:Description rdf:about=""
            xmlns:xmpMM="http://ns.adobe.com/xap/1.0/mm/"
            xmlns:stRef="http://ns.adobe.com/xap/1.0/sType/ResourceRef#"
            xmlns:stEvt="http://ns.adobe.com/xap/1.0/sType/ResourceEvent#">
         <xmpMM:RenditionClass>proof:pdf</xmpMM:RenditionClass>
         <xmpMM:OriginalDocumentID>uuid:65E6390686CF11DBA6E2D887CEACB407</xmpMM:OriginalDocumentID>
         <xmpMM:DocumentID>xmp.did:0180117407206811822AE89C302B9F16</xmpMM:DocumentID>
         <xmpMM:InstanceID>xmp.iid:0180117407206811822AE89C302B9F16</xmpMM:InstanceID>
         <xmpMM:DerivedFrom rdf:parseType="Resource">
            <stRef:instanceID>xmp.iid:0080117407206811822AA83A5D479B6B</stRef:instanceID>
            <stRef:documentID>xmp.did:0080117407206811822AA83A5D479B6B</stRef:documentID>
            <stRef:originalDocumentID>uuid:65E6390686CF11DBA6E2D887CEACB407</stRef:originalDocumentID>
            <stRef:renditionClass>proof:pdf</stRef:renditionClass>
         </xmpMM:DerivedFrom>
         <xmpMM:History>
            <rdf:Seq>
               <rdf:li rdf:parseType="Resource">
                  <stEvt:action>saved</stEvt:action>
                  <stEvt:instanceID>xmp.iid:FF7F117407206811822AA83A5D479B6B</stEvt:instanceID>
                  <stEvt:when>2013-03-19T17:02:16+01:00</stEvt:when>
                  <stEvt:softwareAgent>Adobe Illustrator CS6 (Macintosh)</stEvt:softwareAgent>
                  <stEvt:changed>/</stEvt:changed>
               </rdf:li>
               <rdf:li rdf:parseType="Resource">
                  <stEvt:action>saved</stEvt:action>
                  <stEvt:instanceID>xmp.iid:0180117407206811822AE89C302B9F16</stEvt:instanceID>
                  <stEvt:when>2014-01-01T17:52:41+01:00</stEvt:when>
                  <stEvt:softwareAgent>Adobe Illustrator CS6 (Macintosh)</stEvt:softwareAgent>
                  <stEvt:changed>/</stEvt:changed>
               </rdf:li>
            </rdf:Seq>
         </xmpMM:History>
      </rdf:Description>
      <rdf:Description rdf:about=""
            xmlns:illustrator="http://ns.adobe.com/illustrator/1.0/">
         <illustrator:StartupProfile>Web</illustrator:StartupProfile>
      </rdf:Description>
      <rdf:Description rdf:about=""
            xmlns:xmpTPg="http://ns.adobe.com/xap/1.0/t/pg/"
            xmlns:stDim="http://ns.adobe.com/xap/1.0/sType/Dimensions#"
            xmlns:xmpG="http://ns.adobe.com/xap/1.0/g/">
         <xmpTPg:NPages>1</xmpTPg:NPages>
         <xmpTPg:HasVisibleTransparency>False</xmpTPg:HasVisibleTransparency>
         <xmpTPg:HasVisibleOverprint>False</xmpTPg:HasVisibleOverprint>
         <xmpTPg:MaxPageSize rdf:parseType="Resource">
            <stDim:w>200.000000</stDim:w>
            <stDim:h>125.000000</stDim:h>
            <stDim:unit>Pixels</stDim:unit>
         </xmpTPg:MaxPageSize>
         <xmpTPg:PlateNames>
            <rdf:Seq>
               <rdf:li>Cyan</rdf:li>
               <rdf:li>Magenta</rdf:li>
               <rdf:li>Yellow</rdf:li>
               <rdf:li>Black</rdf:li>
            </rdf:Seq>
         </xmpTPg:PlateNames>
         <xmpTPg:SwatchGroups>
            <rdf:Seq>
               <rdf:li rdf:parseType="Resource">
                  <xmpG:groupName>Standard-Farbfeldgruppe</xmpG:groupName>
                  <xmpG:groupType>0</xmpG:groupType>
               </rdf:li>
            </rdf:Seq>
         </xmpTPg:SwatchGroups>
      </rdf:Description>
      <rdf:Description rdf:about=""
            xmlns:pdf="http://ns.adobe.com/pdf/1.3/">
         <pdf:Producer>Adobe PDF library 10.01</pdf:Producer>
      </rdf:Description>
   </rdf:RDF>
</x:xmpmeta>
                                                                                                    
                                                                                                    
                                                                                                    
                                                                                                    
                                                                                                    
                                                                                                    
                                                                                                    
                                                                                                    
                                                                                                    
                                                                                                    
                                                                                                    
                                                                                                    
                                                                                                    
                                                                                                    
                                                                                                    
                                                                                                    
                                                                                                    
                                                                                                    
                                                                                                    
                                                                                                    
                           
<?xpacket end="w"?>
	</metadata>
<path d="M425.492,338.641c0,0.193,0,0.389,0,0.582c-0.264,0.398-0.526,0.797-0.837,1.266c-0.723-0.684-1.337-1.262-2.025-1.91
	c-0.963,1.625,1.261,3.252-0.336,4.82c-0.822-0.693-1.585-1.334-2.487-2.094c-0.094,1.412-0.172,2.566-0.248,3.721
	c-0.21,0.047-0.421,0.094-0.631,0.141c-0.432-0.57-0.939-1.098-1.28-1.717c-0.535-0.973-0.874-2.057-1.444-3.006
	c-1.624-2.709-2.028-5.73-2.182-8.766c-0.159-3.146-0.081-6.307-0.029-9.46c0.066-4.046-0.8-7.909-2.471-11.542
	c-0.917-1.992-2.271-3.792-3.511-5.621c-0.3-0.442-0.937-0.655-1.417-0.973c-0.006,0.817,0.185,1.316,0.427,1.786
	c3.913,7.577,4.762,15.751,3.942,24.014c-0.386,3.909-2.198,7.67-3.295,11.52c-0.312,1.092-0.626,2.279-0.506,3.377
	c0.195,1.809,0.842,3.564,1.115,5.369c0.314,2.074,1.101,3.508,3.27,4.273c2.354,0.828,4.101,2.451,4.639,5.127
	c1.303,6.482,2.736,12.939,3.998,19.428c0.348,1.783,0.356,3.646,0.356,5.473c-0.001,0.51-0.505,1.355-0.929,1.465
	c-1.396,0.354-1.314,1.215-1.248,2.322c0.155,2.57-0.408,3.557-2.188,4.264c-1.067,0-2.134,0-3.202,0
	c-0.98-0.24-1.981-0.414-2.936-0.73c-1.867-0.615-2.111-1.414-1.199-3.16c1.411-2.697,2.098-5.555,1.112-8.533
	c-1.319-3.986-2.77-7.932-4.194-11.883c-1.038-2.877-2.272-5.639-4.446-7.896c-1.234-1.285-2.283-2.748-3.512-4.039
	c-0.656-0.691-1.514-1.191-2.282-1.777c-0.109,0.092-0.221,0.184-0.331,0.273c0.075,0.457,0.096,0.932,0.238,1.369
	c0.39,1.193,0.806,2.379,1.257,3.551c1.487,3.855,1.559,7.514-1.246,10.906c-0.628,0.762-1.014,1.76-1.371,2.701
	c-0.907,2.393-1.649,4.848-2.616,7.215c-1.135,2.777-2.229,3.285-5.217,2.58c-0.11,0.859-0.241,1.693-0.319,2.533
	c-0.18,1.963-0.63,2.768-2.654,2.418c-0.695-0.119-1.445,0.1-2.172,0.121c-1.108,0.035-2.235,0.158-3.326,0.021
	c-1.923-0.244-2.652-1.734-1.681-3.373c0.611-1.033,1.481-1.912,2.078-2.951c2.237-3.893,4.406-7.826,6.606-11.74
	c0.947-1.686,1.209-3.42,0.604-5.303c-0.662-2.068-1.203-4.174-1.828-6.254c-1.4-4.66-3.442-9.029-6.061-13.127
	c-0.166-0.258-0.443-0.529-0.725-0.619c-3.524-1.109-6.759-0.658-9.923,1.398c-2.603,1.693-3.818,4.426-5.649,6.68
	c-1.257,1.549-2.002,3.51-3.007,5.268c-0.522,0.916-1.104,1.66-2.238,0.607c-0.241-0.225-0.812-0.057-1.206-0.166
	c-0.587-0.164-1.364-0.25-1.681-0.662c-0.689-0.896-1.946-1.359-2.396-2.006c-1.522-2.18-3.03-0.986-4.79-0.771
	c-6.874,0.844-13.78,1.432-20.725,1.01c-0.299-0.018-0.609,0.137-1.098,0.258c0.587,1.115,0.939,2.117,0.01,3.133
	c-0.166,0.18,0.219,0.902,0.402,1.354c0.262,0.65,0.982,1.648,0.794,1.857c-1.257,1.398-0.421,2.604,0.123,3.85
	c0.514,1.178,0.121,1.918-1.087,2.125c-0.936,0.162-1.318,0.619-1.366,1.533c-0.091,1.768-1.15,2.658-2.807,3.012
	c-0.401,0.084-1.068,0.316-1.096,0.545c-0.184,1.496-1.339,2.115-2.233,3.088c-1.056,1.146-2.102,1.848-3.557,2.232
	c-1.346,0.357-1.618,1.486-0.756,2.58c0.209,0.266,0.488,0.477,0.689,0.746c1.085,1.449,0.514,3.672-1.236,3.783
	c-2.175,0.139-1.825,1.355-1.709,2.643c0.083,0.916-0.093,1.752-1.024,2.004c-2.65,0.711-5.337,0.977-8.005,0.057
	c-1.224-0.42-1.482-1.264-0.917-2.414c0.339-0.691,0.712-1.391,0.892-2.129c0.111-0.455-0.113-0.988-0.188-1.486
	c-0.48,0.312-1.036,0.557-1.416,0.965c-0.271,0.291-0.254,0.83-0.454,1.209c-0.844,1.605-1.824,3.186-3.75,3.529
	c-1.459,0.26-2.992,0.281-4.477,0.182c-1.74-0.115-2.627-1.398-2.137-3.021c0.43-1.424,1.123-2.766,1.6-4.18
	c0.424-1.254,0.703-2.557,1.062-3.834c0.239-0.852,0.273-1.906,0.81-2.498c1.124-1.236,1.269-2.424,0.853-3.984
	c-0.919-3.453-1.511-6.967-1.053-10.705c-0.768-0.297-1.642-0.57-2.461-0.959c-2.638-1.256-5.319-2.348-7.596-4.346
	c-2.08-1.828-3.498-4.1-5.21-6.176c-0.531-0.643-1.4-1.203-2.208-1.383c-1.926-0.432-3.928-0.518-5.858-0.934
	c-1.085-0.234-1.486,0.236-1.905,1.031c-0.65,1.23-1.397,2.412-2.035,3.648c-0.521,1.01-1.068,2.035-1.371,3.117
	c-0.297,1.064-0.645,1.881-1.856,2.094c-1.11,0.195-2.195,0.553-3.309,0.713c-2.318,0.334-3.991-0.086-4.803-2.094
	c-0.198-0.49-0.561-0.91-0.761-1.398c-0.503-1.225-1.479-1.566-2.684-1.553c-2.233,0.025-4.089-0.771-5.768-2.283
	c-0.759-0.682-1.894-1.145-2.918-1.293c-1.934-0.285-3.047-1.465-3.651-3.076c-0.3-0.803-0.173-1.918,0.128-2.758
	c0.577-1.607,1.686-3.051,2.091-4.684c0.75-3.023,1.524-6.09-0.958-8.936c-0.624-0.717-1.086-1.561-1.943-2.091
	c-0.267-0.165-0.523-0.472-0.615-0.767c-0.244-0.781-0.395-1.591-0.652-2.683c0.909-0.817-0.159-1.515-0.592-1.949
	c0.175-1.043,0.478-1.805,0.374-2.505c-0.117-0.761-0.609-1.466-0.937-2.196c0-0.679,0-1.359,0-2.038
	c0.198-1.137,0.1-2.451,0.654-3.374c1.319-2.199,0.507-4.659,1.191-6.898c0.012-0.04-0.032-0.093-0.03-0.14
	c0.115-2.608-0.048-5.38,1.528-7.57c3.767-5.236,8.74-8.396,15.474-8.116c2.018,0.083,2.358-0.329,1.689-2.27
	c-0.524-1.523-1.321-2.951-2.117-4.685c0.671-0.075,1.387-0.266,2.084-0.214c2.537,0.19,4.312,1.758,6.008,3.453
	c0.285,0.285,0.653,0.485,0.983,0.725c0.247-0.379,0.651-0.734,0.711-1.141c0.258-1.755,1.158-3.147,2.243-4.48
	c0.729-0.895,1.502-1.79,2.031-2.802c0.732-1.402,1.524-2.571,3.274-2.695c0.315-0.022,0.63-0.228,0.921-0.392
	c2.278-1.28,4.549-2.575,6.829-3.853c0.159-0.088,0.384-0.131,0.563-0.101c2.074,0.346,3.596-0.793,5.192-1.824
	c0.391-0.252,1.151-0.353,1.519-0.14c1.09,0.633,1.958,0.36,2.971-0.176c0.771-0.409,1.915-0.961,2.525-0.672
	c1.887,0.895,3.334-0.009,4.896-0.674c0.388,0,0.777,0,1.165,0c0.717,1.372,1.753,1.502,3.148,1.017
	c1.487-0.517,3.032-0.953,4.615-0.112c0.573,0.305,1.266,0.464,1.918,0.525c1.424,0.133,3.4-0.396,4.17,0.354
	c1.415,1.376,2.694,0.836,4.104,0.736c0.578-0.042,1.168-0.213,1.725-0.133c0.418,0.06,1.102,0.392,1.134,0.664
	c0.139,1.19,0.952,1.019,1.713,1.037c0.969,0.024,1.938,0.056,2.907,0.075c1.211,0.024,2.43-0.05,2.979,1.445
	c0.097,0.264,0.739,0.408,1.147,0.46c0.766,0.097,1.545,0.094,2.319,0.118c1.207,0.037,2.496-0.125,2.85,1.539
	c0.045,0.205,0.412,0.402,0.668,0.492c2.37,0.837,4.703,1.83,7.133,2.426c3.933,0.965,7.542,2.639,11.123,4.44
	c0.846,0.425,1.789,0.693,2.716,0.908c2.817,0.65,5.641,1.282,8.48,1.824c0.756,0.145,1.597,0.033,2.369-0.118
	c1.886-0.37,3.742-1.113,5.633-1.192c2.991-0.125,6.02-0.01,8.996,0.322c6.483,0.722,12.607,2.789,18.521,5.49
	c0.921,0.421,1.857,0.855,2.685,1.43c4.162,2.898,8.246,5.853,11.622,9.743c1.782,2.054,3.116,4.269,4.286,6.665
	c2.515,5.157,3.396,10.766,4.464,16.304C421.151,330.256,422.551,334.741,425.492,338.641z"/>
</svg>
