<?xml version="1.0" encoding="utf-8"?>
<!-- Generator: Adobe Illustrator 19.2.1, SVG Export Plug-In . SVG Version: 6.00 Build 0)  -->
<svg version="1.1" id="Ebene_1" xmlns="http://www.w3.org/2000/svg" xmlns:xlink="http://www.w3.org/1999/xlink" x="0px" y="0px"
	 viewBox="0 0 565.5 565.5" style="enable-background:new 0 0 565.5 565.5;" xml:space="preserve">

<path class="ring" fill="#2D2828" d="M281.2-0.5C125.3-0.5-1,125.9-1,281.8c0,142.3,105.3,259.9,242.2,279.4v-86.3c-38.4-7.9-72.6-26.9-99.4-53.7
	C106,385.4,84,336.4,84,281.8c0-54.6,22-103.6,57.8-139.5c35.8-35.8,84.9-57.7,139.5-57.8c54.6,0,103.6,22,139.5,57.8
	c35.8,35.8,57.7,84.9,57.8,139.5c0,54.6-22,103.6-57.8,139.5c-26.8,26.7-61,45.8-99.4,53.7v86.3c136.9-19.5,242.2-137.1,242.2-279.4
	C563.5,125.9,437.1-0.5,281.2-0.5z"/>
</svg>
