<?xml version="1.0" encoding="utf-8"?>
<!-- Generator: Adobe Illustrator 21.0.2, SVG Export Plug-In . SVG Version: 6.00 Build 0)  -->
<svg version="1.1" id="Ebene_1" xmlns="http://www.w3.org/2000/svg" xmlns:xlink="http://www.w3.org/1999/xlink" x="0px" y="0px"
	 viewBox="0 0 137 107" enable-background="new 0 0 137 107" xml:space="preserve">
<path d="M120.5,89h6l1.6-1.7v-3.6h-5v1.1h3.7v2.1l-1,1h-4.7l-1-1v-6l1-1h4.9l0.7,0.7v0.9h1.3v-1.3l-1.4-1.4h-6.1l-1.6,1.7v6.8
	L120.5,89z M102.7,89h4.7v-1.1h-1.9v-7.6l6.2,8.7h1.5v-9.1h1.5v-1.1H110v1.1h1.9v7.6l-6.2-8.7h-3.1v1.1h1.5v8h-1.5L102.7,89
	L102.7,89z M94.4,89h4.6v-1.1h-1.7v-8h1.7v-1.1h-4.6v1.1h1.7v8h-1.7C94.4,87.9,94.4,89,94.4,89z M81.7,89h9.2v-3.8h-1.1v2.7h-5.2v-8
	h2v-1.1h-4.8v1.1h1.5v8h-1.5V89z M70.4,89h5.2v-1.1h-2v-8H77v2.3h1.1v-3.4H68v3.4h1.1v-2.3h3.3v8h-2C70.4,87.9,70.4,89,70.4,89z
	 M56.7,83.9v-4h5.5l0.8,0.8V83l-0.9,0.9H56.7z M53.9,89h4.9v-1.1h-2.1V85h6l1.5-1.6v-3.1l-1.5-1.5h-8.9v1.1h1.5v8h-1.5L53.9,89
	L53.9,89z M41.4,89h5.7l1.6-1.7v-7.4h1.6v-1.1h-4.6v1.1h1.8v7l-1,1H42l-1-1v-7h1.8v-1.1h-4.6v1.1h1.6v7.4L41.4,89z M30.1,77.7h1.1
	v-1.5h-1.1V77.7z M27.4,77.7h1v-1.5h-1V77.7z M29.1,79.8h0.3l2,4.8H27L29.1,79.8z M23.3,89h4.1v-1h-1.8l1-2.3h5.2l1,2.3H31v1h4.2v-1
	h-1.1l-3.5-8.2h2.1v-1h-6.8v1h2l-3.5,8.2h-1.1L23.3,89L23.3,89z M8,89h4.5v-1.1h-1.7v-3.5h6.1v3.5h-1.7V89h4.5v-1.1h-1.5v-8h1.5
	v-1.1h-4.5v1.1h1.7v3.4h-6.1v-3.4h1.7v-1.1H8v1.1h1.5v8H8V89z"/>
<path d="M100.3,97.7v-0.5L97.7,96v0.5l2.1,1l-2.1,1v0.5L100.3,97.7z M91.3,99.5h1.9v-0.5h-0.8v-3.2l2.6,3.6h0.6v-3.8h0.6v-0.5h-1.9
	v0.5h0.8v3.2l-2.6-3.6h-1.3v0.5h0.6v3.3h-0.6V99.5z M86.3,99.5h2.5l0.7-0.7v-1.5h-2.1v0.4H89v0.9l-0.4,0.4h-2l-0.4-0.4v-2.5l0.4-0.4
	h2.1l0.3,0.3v0.4h0.5v-0.6l-0.6-0.6h-2.6L85.7,96v2.8L86.3,99.5z M81.9,99.5h1.9v-0.5h-0.7v-3.3h0.7v-0.5h-1.9v0.5h0.7v3.3h-0.7
	V99.5z M77,99.5h2.6l0.6-0.6v-1.2l-0.5-0.5h-2.5l-0.2-0.3v-0.8l0.3-0.4h2.1l0.3,0.3v0.4h0.5v-0.6l-0.6-0.6H77l-0.6,0.6V97l0.5,0.5
	h2.5l0.2,0.3v0.9l-0.3,0.4h-2.1l-0.3-0.3v-0.4h-0.5v0.6L77,99.5z M70.4,99.5h4.1v-1.1H74v0.7h-2.4v-1.4h2.4v-0.4h-2.4v-1.4H74v0.7
	h0.5v-1.1h-4.1v0.5H71v3.3h-0.6V99.5z M65.4,99.1v-3.3h2.2l0.4,0.4v2.5l-0.4,0.4H65.4z M64.2,99.5h3.6l0.7-0.7V96l-0.7-0.7h-3.6v0.5
	h0.6v3.3h-0.6V99.5z M59.3,97.1v-1.3h2.3l0.3,0.3v0.7l-0.3,0.4C61.6,97.1,59.3,97.1,59.3,97.1z M59.3,99.1v-1.5h2.2l0.4,0.4v0.8
	l-0.3,0.3L59.3,99.1L59.3,99.1z M58.1,99.5h3.8l0.6-0.6v-1.1L62,97.3l0.5-0.5v-1l-0.6-0.6h-3.8v0.5h0.6v3.3h-0.6L58.1,99.5
	L58.1,99.5z M52.4,99.5h4.1v-1.1H56v0.7h-2.4v-1.4h2.4v-0.4h-2.4v-1.4H56v0.7h0.5v-1.1h-4.1v0.5H53v3.3h-0.6V99.5z M45.7,99.5h0.7
	l1.1-3.7l1.1,3.7h0.7l1-3.8h0.5v-0.5h-1.7v0.5h0.7L49,99l-1.2-3.8h-0.6L46.1,99l-0.9-3.3H46v-0.5h-1.8v0.5h0.5L45.7,99.5z
	 M40.5,99.9H41l1.9-5.1h-0.5L40.5,99.9z M39.1,98.8v-0.5l-2.1-1l2.1-1V96l-2.6,1.2v0.5L39.1,98.8z"/>
<path d="M73.1,70.7v-1.5h2.3l0.3,0.4v0.8l-0.3,0.4H73.1z M71.9,72.9h1.9v-0.5h-0.8v-1.4h2.2l0.4,0.4v1.1l0.4,0.4h0.7v-0.5h-0.4
	l-0.1-0.1v-1l-0.5-0.5l0.5-0.5v-1.1l-0.6-0.6h-3.7v0.5h0.6v3.3h-0.6V72.9z M66.2,72.9h4.1v-1.1h-0.5v0.7h-2.4V71h2.4v-0.5h-2.4v-1.4
	h2.4v0.7h0.5v-1.1h-4.1v0.5h0.6v3.3h-0.6V72.9z M61.2,72.5v-3.3h2.2l0.4,0.4v2.5l-0.4,0.4C63.4,72.5,61.2,72.5,61.2,72.5z M60,72.9
	h3.6l0.7-0.7v-2.8l-0.7-0.7H60v0.5h0.6v3.3H60V72.9z"/>
<polygon points="58.6,38.2 65.7,38.2 65.7,36.5 63.1,36.5 63.1,31 72.7,31 72.7,36.5 70,36.5 70,38.2 77.1,38.2 77.1,36.5 
	74.7,36.5 74.7,23.8 77.1,23.8 77.1,22.1 70,22.1 70,23.8 72.7,23.8 72.7,29.2 63.1,29.2 63.1,23.8 65.7,23.8 65.7,22.1 58.6,22.1 
	58.6,23.8 61.1,23.8 61.1,36.5 58.6,36.5 "/>
<polygon points="77.1,53.7 77.1,48.7 54.3,48.7 54.3,47 84.9,47 84.9,35 86.6,35 86.6,48.7 78.9,48.7 78.9,51.9 90.5,51.9 90.5,8.4 
	45.6,8.4 45.6,40.4 49.3,40.4 49.3,26.3 54.6,26.3 54.6,16.7 61.3,16.7 61.3,18.4 56.3,18.4 56.3,41.7 79.6,41.7 79.6,18.4 
	64.6,18.4 64.6,16.7 81.3,16.7 81.3,29.9 84.9,29.9 84.9,13.1 51,13.1 51,23 49.3,23 49.3,11.4 86.6,11.4 86.6,31.7 84.9,31.7 
	84.5,31.7 81.3,31.7 81.3,43.4 54.6,43.4 54.6,28.1 51,28.1 51,45.1 51,45.5 51,48.7 49.3,48.7 49.3,42.2 45.6,42.2 45.6,51.9 
	73.8,51.9 73.8,53.7 43.8,53.7 43.8,6.6 92.2,6.6 92.2,53.7 "/>
</svg>
