<svg xmlns="http://www.w3.org/2000/svg" width="43.8" height="42.6" viewBox="0 0 43.8 42.6"><title>Zeichenfläche 1</title><polygon points="13.4 28.6 19.9 28.6 19.9 27 17.4 27 17.4 22.1 26.1 22.1 26.1 27 23.7 27 23.7 28.6 30.1 28.6 30.1 27 27.9 27 27.9 15.6 30.1 15.6 30.1 14.1 23.7 14.1 23.7 15.6 26.1 15.6 26.1 20.5 17.4 20.5 17.4 15.6 19.9 15.6 19.9 14.1 13.4 14.1 13.4 15.6 15.6 15.6 15.6 27 13.4 27 13.4 28.6"/><polygon points="0 0 0 42.6 27.2 42.6 27.2 41 1.7 41 1.7 32.2 5 32.2 5 38.1 6.5 38.1 6.5 35.2 6.6 34.9 6.6 19.5 9.8 19.5 9.8 33.3 33.9 33.3 33.9 22.7 36.8 22.7 37.2 22.8 38.8 22.8 38.8 4.4 5 4.4 5 14.9 6.6 14.9 6.6 5.9 37.2 5.9 37.2 21.1 33.9 21.1 33.9 9.2 18.9 9.2 18.9 10.7 32.4 10.7 32.4 31.8 11.4 31.8 11.4 10.7 15.9 10.7 15.9 9.2 9.8 9.2 9.8 17.9 5 17.9 5 30.6 1.7 30.6 1.7 1.7 42.3 1.7 42.3 41 31.7 41 31.7 38.1 38.8 38.1 38.8 25.7 37.2 25.7 37.2 36.6 9.5 36.6 9.5 38.1 30.1 38.1 30.1 42.6 43.8 42.6 43.8 0 0 0"/></svg>