<svg xmlns="http://www.w3.org/2000/svg" width="70.6" height="42.6" viewBox="0 0 70.6 42.6"><title>Zeichenfläche 1</title><polygon points="26.8 28.6 33.3 28.6 33.3 27 30.8 27 30.8 22.1 39.5 22.1 39.5 27 37.1 27 37.1 28.6 43.5 28.6 43.5 27 41.3 27 41.3 15.6 43.5 15.6 43.5 14.1 37.1 14.1 37.1 15.6 39.5 15.6 39.5 20.5 30.8 20.5 30.8 15.6 33.3 15.6 33.3 14.1 26.8 14.1 26.8 15.6 29 15.6 29 27 26.8 27 26.8 28.6"/><polygon points="13.4 0 13.4 42.6 40.6 42.6 40.6 41 15.1 41 15.1 32.2 18.4 32.2 18.4 38.1 19.9 38.1 19.9 35.2 20 34.9 20 19.5 23.2 19.5 23.2 33.3 47.3 33.3 47.3 22.7 50.2 22.7 50.6 22.8 52.2 22.8 52.2 4.4 18.4 4.4 18.4 14.9 20 14.9 20 5.9 50.6 5.9 50.6 21.1 47.3 21.1 47.3 9.2 32.3 9.2 32.3 10.7 45.8 10.7 45.8 31.8 24.8 31.8 24.8 10.7 29.3 10.7 29.3 9.2 23.2 9.2 23.2 17.9 18.4 17.9 18.4 30.6 15.1 30.6 15.1 1.7 55.7 1.7 55.7 41 45.1 41 45.1 38.1 52.2 38.1 52.2 25.7 50.6 25.7 50.6 36.6 22.9 36.6 22.9 38.1 43.5 38.1 43.5 42.6 57.2 42.6 57.2 0 13.4 0"/></svg>