<svg xmlns="http://www.w3.org/2000/svg" width="220.7" height="51" viewBox="0 0 220.7 51"><title>Zeichenfläche 1</title><path d="M210.4,32h8.1l2.2-2.4V24.7h-6.8v1.5H219v2.9l-1.3,1.4h-6.5l-1.3-1.4V20.9l1.3-1.4h6.7l.9,1v1.3h1.7V20l-1.8-1.9h-8.4l-2.2,2.4v9.2Zm-24.3,0h6.4V30.5h-2.7V20l8.5,11.9h2.1V19.5h2V18h-6.2v1.5h2.6V29.9L190.3,18h-4.2v1.5h2.1v11h-2.1V32Zm-11.2,0h6.3V30.5h-2.3v-11h2.3V18h-6.3v1.5h2.3v11h-2.3Zm-17.4,0H170V26.8h-1.5v3.7h-7.1v-11h2.7V18h-6.6v1.5h2.1v11h-2.1V32Zm-15.4,0h7.1V30.5h-2.7v-11H151v3.2h1.5V18H138.8v4.7h1.5V19.5h4.5v11h-2.7V32Zm-18.8-7V19.5h7.5l1.1,1.2v3.1L130.7,25Zm-3.8,7h6.7V30.5h-2.8v-4h8.2l2.1-2.2V20.1l-2-2.1H119.6v1.5h2.1v11h-2.1l-.1,1.5Zm-17.1,0h7.8l2.2-2.4V19.5h2.2V18h-6.3v1.5h2.4v9.6l-1.3,1.4h-6.1L102,29.1V19.5h2.4V18H98.1v1.5h2.2V29.6ZM87,16.6h1.4v-2H87Zm-3.7,0h1.4v-2H83.3Zm2.3,2.8H86L88.8,26H82.9ZM77.7,32h5.6V30.6H80.9l1.3-3.2h7.1l1.3,3.2H88.1V32h5.8V30.6H92.4L87.6,19.5h2.8V18H81.1v1.4h2.8L79.1,30.5H77.6A8.08,8.08,0,0,1,77.7,32ZM56.8,32H63V30.5H60.7V25.7H69v4.8H66.7V32h6.2V30.5H70.8v-11h2.1V18H66.7v1.5H69v4.7H60.7V19.5H63V18H56.8v1.5h2.1v11H56.8Z"/><path d="M144.1,43.9v-.8l-3.5-1.6v.7l2.9,1.3-2.9,1.3v.6Zm-12.3,2.5h2.7v-.6h-1.1V41.5l3.5,5h.9V41.3h.8v-.6H136v.6h1.1v4.3l-3.5-5h-1.8v.6h.9v4.6h-.9v.6Zm-6.7,0h3.4l.9-1v-2h-2.8V44h2.1v1.2l-.6.6h-2.7l-.6-.6V41.8l.6-.6h2.8l.4.4v.5h.7v-.8l-.8-.8H125l-.9,1v3.8Zm-6.1,0h2.6v-.6h-1V41.2h1v-.6H119v.6h1v4.6h-1Zm-6.8,0h3.5l.8-.9V43.9l-.7-.8h-3.4l-.3-.4V41.6l.5-.5h2.8l.4.4V42h.7v-.8l-.8-.8h-3.5l-.8.9V43l.7.8h3.4l.3.4v1.2l-.5.5h-2.7l-.4-.4v-.6h-.7v.8Zm-8.9,0h5.6V44.8h-.6v.9H105v-2h3.2v-.6H105v-2h3.3V42h.6V40.4h-5.6V41h.9v4.6h-.9Zm-6.8-.6V41.2h3l.6.6v3.4l-.6.6Zm-1.6.6h5l.9-1V41.6l-.9-1h-5v.6h.9v4.6h-.9Zm-6.7-3.3V41.3h3.2l.4.4v1l-.5.3-3.1.1Zm0,2.7V43.7h3l.5.6v1.1l-.4.4Zm-1.6.6h5.1l.8-.8V44.1l-.6-.7.6-.7V41.4l-.8-.8H86.6v.6h.9v4.6h-.9Zm-7.9,0h5.6V44.8h-.6v.9H80.4v-2h3.2v-.6H80.4v-2h3.3V42h.6V40.4H78.7V41h.9v4.6h-.9Zm-9.1,0h.9l1.6-5.1,1.6,5.1h.9L76,41.2h.7v-.6H74.3v.6h1l-1.2,4.5-1.6-5.2h-.9L70,45.7l-1.2-4.5h1v-.6H67.3v.6H68Zm-7.2.6h.7l2.5-7h-.7Zm-1.9-1.5v-.6l-2.9-1.4,2.9-1.3v-.7L57,43.1v.8Z"/><path d="M74.9,7V4.9H78l.5.5V6.5L78,7Zm-1.6,3.1h2.6V9.5h-1V7.6H78l.5.5V9.6l.5.5h.9V9.5h-.6l-.1-.1V8l-.6-.7.6-.7V5.2l-.8-.9H73.3v.6h.9V9.5h-.9Zm-7.8,0h5.6V8.6h-.6v.9H67.2v-2h3.2V6.9H67.2v-2h3.3v.9h.6V4.3H65.5v.6h.9V9.5h-.9Zm-6.8-.6V4.9h3l.6.6V8.9l-.6.6Zm-1.6.6h5l.9-1V5.3l-.9-1h-5v.6H58V9.5h-.9Z"/><polygon points="13.3 32.6 19.7 32.6 19.7 31 17.3 31 17.3 26.1 25.9 26.1 25.9 31 23.5 31 23.5 32.6 29.9 32.6 29.9 31 27.7 31 27.7 19.7 29.9 19.7 29.9 18.1 23.5 18.1 23.5 19.7 25.9 19.7 25.9 24.5 17.3 24.5 17.3 19.7 19.7 19.7 19.7 18.1 13.3 18.1 13.3 19.7 15.5 19.7 15.5 31 13.3 31 13.3 32.6"/><polygon points="0 4.1 0 46.6 27 46.6 27 44.9 1.6 44.9 1.6 36.2 4.9 36.2 4.9 42.1 6.4 42.1 6.4 39.1 6.5 38.8 6.5 23.5 9.7 23.5 9.7 37.3 33.7 37.3 33.7 26.7 36.6 26.7 37 26.8 38.5 26.8 38.5 8.4 4.9 8.4 4.9 19 6.5 19 6.5 10 37 10 37 25.1 33.7 25.1 33.7 13.2 18.7 13.2 18.7 14.8 32.2 14.8 32.2 35.7 11.2 35.7 11.2 14.8 15.7 14.8 15.7 13.2 9.7 13.2 9.7 21.9 4.9 21.9 4.9 34.6 1.6 34.6 1.6 5.8 42 5.8 42 44.9 31.5 44.9 31.5 42.1 38.5 42.1 38.5 29.7 37 29.7 37 40.5 9.4 40.5 9.4 42.1 30 42.1 30 46.6 43.5 46.6 43.5 4.1 0 4.1"/></svg>